<svg width="560" height="399" viewBox="0 0 560 399" fill="none" xmlns="http://www.w3.org/2000/svg">
<path d="M230.413 92.0325C225.638 91.4135 183.254 91.4135 175.649 92.0325C175.519 92.0609 175.404 92.1373 175.328 92.2466C175.251 92.3558 175.219 92.4898 175.237 92.622C175.264 92.7207 175.316 92.8106 175.388 92.8829C175.461 92.9553 175.551 93.0076 175.649 93.0346C182.487 93.6241 225.55 93.8894 230.266 93.2704C230.944 93.2115 231.15 92.1209 230.413 92.0325ZM429.516 165.778C428.926 165.778 421.351 168.461 423.355 169.551L425.478 171.32C425.006 172.381 429.633 177.215 426.45 188.592C425.124 187.678 425.094 188.592 425.271 188.887C430.194 193.956 465.357 222.105 473.197 227.204C473.905 228.235 478.385 226.025 479.092 225.789C494.665 219.15 509.867 211.672 524.631 203.388C530.025 200.441 529.966 189.859 523.422 185.703C516.539 181.126 509.372 176.991 501.965 173.324L511.102 166.162C511.75 165.66 511.397 163.804 508.921 165.808C503.589 157.193 501.431 146.988 502.819 136.952C503.173 136.746 507.123 134.388 505.384 133.621C496.541 129.937 467.243 119.179 458.224 118.619C455.277 118.412 431.697 137.276 429.486 141.079C424.77 148.948 426.214 157.938 429.663 165.867L429.516 165.778ZM427.158 189.034C430.105 185.821 429.191 177.008 427.777 173.118C431.815 176.36 464.266 200.824 474.583 207.367C480.153 219.157 473.934 224.875 474.14 225.76C456.868 213.763 442.809 200.058 427.158 189.034ZM523.216 187.708C528.138 190.242 527.018 200.794 523.481 202.032C507.641 210.518 491.477 218.384 475.025 225.612C477.2 222.677 478.387 219.126 478.414 215.473L501.11 206.159C501.522 205.953 501.11 205.393 500.786 205.481C493.165 208.028 485.705 211.03 478.444 214.471C478.387 211.606 477.495 208.82 475.879 206.454C482.806 203.712 518.205 185.35 523.216 187.708ZM474.081 157.761C482.754 150.581 491.827 143.899 501.257 137.748C500.569 141.332 500.44 145.001 500.874 148.624C499.43 149.096 481.568 162.182 480.654 162.89C480.271 163.185 480.654 163.804 481.126 163.568L501.08 150.009C501.699 154.165 504.205 163.627 508.066 166.191C504.146 169.374 484.751 184.731 480.035 184.731C476.499 181.32 474.053 176.938 473.004 172.139C471.955 167.339 472.35 162.336 474.14 157.761H474.081ZM470.22 132.325C472.284 134.093 463.736 139.074 463.412 139.163C462.439 139.457 461.79 138.455 463.883 136.451C464.944 135.537 468.835 131.234 470.22 132.354V132.325ZM454.156 137.247C455.63 134.299 461.761 129.407 464.355 127.638C464.613 127.458 464.932 127.388 465.241 127.444C465.551 127.499 465.826 127.675 466.005 127.933C466.185 128.191 466.255 128.51 466.2 128.819C466.145 129.129 465.969 129.404 465.711 129.583C463.412 131.352 457.163 137.217 455.424 138.426C455.293 138.498 455.146 138.536 454.997 138.536C454.847 138.536 454.7 138.498 454.569 138.426C454.466 138.378 454.373 138.311 454.296 138.227C454.219 138.143 454.16 138.045 454.121 137.938C454.083 137.831 454.066 137.717 454.072 137.603C454.078 137.49 454.107 137.379 454.156 137.276V137.247ZM432.522 142.346C445.167 145.777 457.589 149.98 469.719 154.932C470.486 155.315 470.22 156.612 469.307 156.435C456.67 152.914 444.258 148.632 432.139 143.613C432.004 143.538 431.899 143.419 431.841 143.275C431.784 143.132 431.776 142.974 431.821 142.826C431.866 142.678 431.96 142.55 432.087 142.462C432.215 142.375 432.368 142.334 432.522 142.346ZM430.341 167.193C444.4 175.122 470.574 185.202 480.448 186.676C482.423 186.971 498.457 175.711 501.08 173.796C502.79 175.476 517.026 183.522 520.652 185.762C515.405 186.028 477.324 203.771 474.583 205.51C458.224 193.278 441.247 180.87 424.475 169.227L430.37 167.193H430.341ZM278.28 35.8535C278.101 35.7798 277.9 35.7798 277.72 35.8535C275.981 36.9146 265.93 50.5909 263.897 53.1552C261.951 50.5025 259.977 47.8792 258.002 45.3149C257.619 44.8433 256.823 45.3149 257.118 45.9339C259.092 49.0877 261.215 52.1236 263.366 55.1595C263.72 55.6311 264.398 55.3953 264.693 55.0121C266.549 52.6541 278.369 38.3884 278.87 36.7672C278.892 36.6685 278.893 36.5665 278.875 36.467C278.858 36.3676 278.82 36.2726 278.765 36.1877C278.71 36.1028 278.639 36.0295 278.556 35.9722C278.473 35.9148 278.379 35.8745 278.28 35.8535ZM222.072 97.7506C204.387 98.1043 184.786 97.7506 177.182 98.399C177.026 98.399 176.876 98.4611 176.765 98.5717C176.654 98.6822 176.592 98.8322 176.592 98.9885C176.592 99.1449 176.654 99.2948 176.765 99.4054C176.876 99.5159 177.026 99.578 177.182 99.578C186.319 99.578 214.762 100.521 222.072 98.9591C222.691 98.8117 222.573 97.9274 222.072 97.7506ZM222.72 68.1284C223.31 68.1284 223.487 67.1263 222.72 67.0379C216.825 66.1536 181.456 67.8926 172.879 69.219C172.722 69.219 172.572 69.2811 172.462 69.3916C172.351 69.5022 172.289 69.6521 172.289 69.8085C172.289 69.9648 172.351 70.1148 172.462 70.2253C172.572 70.3359 172.722 70.398 172.879 70.398C184.433 70.398 210.695 68.6 222.573 68.1874L222.72 68.1284ZM210.989 74.0234C211.491 74.0234 211.756 73.0212 210.989 72.8444C208.042 72.1075 178.567 72.8444 174.116 73.3455C174.046 73.3561 173.979 73.3808 173.919 73.4179C173.858 73.455 173.806 73.5039 173.765 73.5616C173.724 73.6193 173.694 73.6847 173.679 73.7539C173.663 73.823 173.662 73.8946 173.674 73.9644C173.69 74.0791 173.741 74.186 173.821 74.2705C173.9 74.3549 174.003 74.4128 174.116 74.436C179.805 74.7602 207.511 74.9666 210.989 74.0234ZM273.83 90.2345C275.451 87.8765 257.678 88.7313 256.911 89.5271C256.145 90.3229 256.911 102.437 256.911 103.557C256.911 105.296 273.388 105.267 274.036 104.766C274.771 99.9696 274.771 95.0895 274.036 90.2935L273.83 90.2345ZM272.562 103.439C271 103.439 259.417 103.646 258.473 102.909C258.473 98.7527 258.208 94.6263 258.061 90.4998H272.798C272.268 94.7928 272.189 99.1297 272.562 103.439Z" fill="black"/>
<path d="M481.628 172.145C485.754 169.699 489.969 167.311 493.948 164.658C494.508 164.275 493.948 163.273 493.3 163.627L481.186 171.467C481.118 171.534 481.075 171.622 481.064 171.717C481.054 171.812 481.077 171.907 481.129 171.987C481.181 172.067 481.259 172.127 481.35 172.155C481.441 172.184 481.539 172.18 481.628 172.145ZM451.917 204.508C451.564 204.272 451.092 204.833 451.446 205.127C454.393 207.692 468.895 217.831 472.078 220.071C472.491 220.366 472.844 219.688 472.461 219.393C466.271 214.677 458.49 208.458 451.917 204.508ZM260.98 79.9773C262.512 79.9773 274.508 81.3626 274.391 79.3878C274.273 77.413 274.096 66.0652 273.329 65.7115C273.123 63.7367 258.179 65.1809 256.794 65.4462C255.939 65.4462 256.293 76.9414 256.352 78.3267C256.44 80.331 259.653 79.9183 260.98 79.9773ZM272.563 66.3894V78.7983C267.599 78.2874 262.6 78.1889 257.619 78.5035C257.815 74.4648 257.736 70.4175 257.384 66.3894C259.83 66.3894 271.001 66.7726 272.563 66.3894ZM471.43 214.412C471.504 214.474 471.598 214.508 471.695 214.508C471.792 214.508 471.886 214.474 471.96 214.412C472.018 214.347 472.05 214.263 472.05 214.176C472.05 214.089 472.018 214.005 471.96 213.94C458.461 204.361 445.05 192.836 431.786 183.846C431.403 183.552 430.813 184.112 431.196 184.495C438.624 191.569 461.821 208.075 471.547 214.559L471.43 214.412ZM274.332 46.3171C274.291 46.1854 274.2 46.0749 274.079 46.0088C273.958 45.9428 273.816 45.9265 273.683 45.9634C273.594 45.9844 273.512 46.0279 273.445 46.0899C273.378 46.1519 273.328 46.2301 273.3 46.3171V56.6332H256.971C256.685 51.8832 256.154 47.1511 255.379 42.4559C259.99 42.67 264.61 42.5518 269.203 42.1022C269.307 42.0688 269.395 42.0008 269.454 41.9094C269.514 41.8181 269.539 41.7092 269.527 41.6011C269.51 41.5384 269.481 41.4798 269.44 41.4291C269.4 41.3784 269.349 41.3366 269.291 41.3064C268.201 40.9527 254.554 39.7737 254.967 42.1316C253.611 42.1316 255.586 56.869 255.586 56.869C256.293 58.667 259.27 58.048 260.832 58.048C262.394 58.048 273.241 58.3133 274.125 58.048C275.54 57.488 274.744 48.0561 274.42 46.2581L274.332 46.3171Z" fill="black"/>
<path d="M559.146 313.712C521.595 316.011 484.034 317.976 446.464 319.607C445.973 314.232 444.986 308.914 443.516 303.72C480.851 302.738 518.186 301.588 555.52 300.272C555.711 300.249 555.888 300.164 556.027 300.032C556.165 299.899 556.256 299.724 556.287 299.535C556.312 299.305 556.246 299.074 556.102 298.892C555.959 298.71 555.75 298.592 555.52 298.562C518.028 299.958 480.546 301.107 443.074 302.011C434.232 271.18 415.574 241.853 393.822 218.627C393.144 210.786 393.114 206.837 389.754 198.967C383.27 184.082 376.107 180.987 376.284 184.524C376.282 185.456 376.432 186.382 376.726 187.266C375.547 185.792 366.882 176.773 365.113 181.636C363.809 180.815 362.337 180.299 360.806 180.126C359.276 179.952 357.725 180.126 356.271 180.634C350.759 171.791 341.533 171.791 335.638 168.844C324.379 162.949 329.567 144.144 337.849 137.129C337.849 137.129 373.425 136.451 373.455 136.009C374.103 127.668 381.207 0.719584 381.207 0.719584C293.548 -1.01943 199.229 0.719585 112.22 2.48807C111.63 2.48807 111.129 2.87125 111.188 3.4018C116.434 48.0561 129.315 139.457 129.315 139.457C131.437 140.312 324.114 137.306 335.638 137.129C330.71 142.505 328.012 149.555 328.093 156.848C328.682 175.417 343.449 167.517 355.534 181.105C347.694 184.465 346.692 194.398 349.639 201.502C350.175 202.864 350.899 204.144 351.791 205.304C351.914 208.074 352.703 210.773 354.09 213.174C357.862 220.336 364.583 222.812 364.936 223.873C364.936 240.556 368.444 260.894 371.775 277.164C360.545 271.269 327.238 257.209 292.988 256.207C294.934 239.318 309.524 237.196 307.52 225.907C313.621 225.671 319.722 225.435 325.823 225.141C327.356 225.141 325.676 220.425 325.499 219.629C323.023 208.723 320.538 197.837 318.042 186.971C317.659 185.497 315.949 175.594 314.505 175.594L295.494 175.947C291.308 171.968 281.493 170.494 277.485 175.122C271.59 163.774 253.374 165.425 252.785 176.448C247.804 173.059 240.405 172.381 235.896 176.979C235.424 177.185 146.263 178.394 132.999 178.924H132.763C132.62 179.015 132.518 179.159 132.48 179.324C132.441 179.489 132.469 179.663 132.557 179.808C132.793 181.341 125.1 217.713 124.186 226.467C124.186 227.705 137.538 227.528 138.924 227.528C119.883 249.841 102.758 275.012 97.659 304.457C65.5315 303.956 33.404 303.16 1.27643 303.278C1.12009 303.278 0.970145 303.34 0.859593 303.451C0.749041 303.562 0.686934 303.711 0.686934 303.868C0.686934 304.024 0.749041 304.174 0.859593 304.285C0.970145 304.395 1.12009 304.457 1.27643 304.457C33.2566 305.843 65.3251 305.99 97.3348 306.226C96.3812 312.07 95.9864 317.992 96.1558 323.911C64.323 323.262 32.4902 322.26 0.686934 321.73C-0.0204607 321.73 -0.13836 322.85 0.686934 322.85C32.5197 324.471 64.4114 325.06 96.3032 325.532C97.1284 341.537 103.436 361.167 119.117 368.359C125.572 381.033 139.248 392.44 154.486 389.168C154.044 391.467 153.632 393.825 153.189 396.183C153.013 397.244 154.604 397.686 154.781 396.625C159.114 373.281 163.624 349.819 171.199 327.3C171.434 326.593 170.373 326.328 170.108 327.006C162.739 346.577 158.583 367.15 154.752 387.635C139.16 389.905 126.721 379.972 120.266 366.531C116.793 359.429 114.785 351.701 114.359 343.807C113.934 335.913 115.101 328.014 117.79 320.58C125.837 299.948 147.265 285.21 168.31 275.13C189.708 264.989 212.688 258.599 236.249 256.237C237.93 271.976 256.027 277.311 269.821 276.486C283.615 275.66 291.78 271.446 292.959 257.533C293.136 257.533 342.742 258.624 385.569 287.244C398.154 295.644 409.591 306.432 416.281 320.138C422.825 333.372 425.124 349.613 419.229 363.407C410.799 383.509 395.413 386.427 385.215 388.225C381.609 366.642 374.648 345.757 364.583 326.328C364.317 325.827 363.492 326.151 363.757 326.681C374.254 349.315 381.412 373.351 385.009 398.04C385.009 398.806 386.541 399.012 386.541 398.04C386.422 395.342 386.067 392.659 385.48 390.023C396.596 389.066 406.888 383.772 414.13 375.285C437.71 369.39 447.996 343.895 446.552 321.435C484.201 319.902 521.811 317.937 559.382 315.54C560.413 315.157 560.03 313.712 559.146 313.712ZM129.433 120.829C123.538 83.3374 118.851 46.0223 113.516 8.50093C201.941 6.96824 292.664 7.61669 379.88 6.14295L373.071 116.703C336.257 117.823 134.178 118.972 129.433 120.829ZM307.166 224.256C306.626 222.685 305.592 221.33 304.218 220.395C305.746 217.965 306.573 215.16 306.606 212.29H308.197L310.408 224.08L307.166 224.256ZM304.69 202.651C305.194 202.245 305.658 201.791 306.075 201.296C306.783 204.449 307.372 207.603 307.962 210.757H306.547C306.691 207.935 306.048 205.129 304.69 202.651ZM324.851 223.49L311.292 224.08C310.939 220.1 310.172 216.18 309.465 212.29C313.702 212.431 317.944 212.322 322.168 211.965C323.053 215.768 323.966 219.658 324.851 223.49ZM321.903 210.61H309.229L307.107 199.557L319.339 199.203L321.903 210.61ZM318.956 197.935L307.431 198.289C307.653 196.891 307.553 195.461 307.139 194.108C306.725 192.755 306.009 191.513 305.044 190.478C304.867 189.594 304.69 188.68 304.454 187.767L316.598 187.501L318.956 197.935ZM314.446 176.89C315.095 179.838 315.684 182.992 316.274 186.057L304.159 186.263C303.541 183.164 302.743 180.104 301.772 177.097L314.446 176.89ZM303.305 189.388C301.87 188.735 300.249 188.62 298.736 189.064C298.871 188.699 298.98 188.324 299.06 187.943H302.951L303.305 189.388ZM300.357 177.126C300.91 180.221 301.638 183.281 302.538 186.293H299.267C299.604 183.027 298.699 179.754 296.732 177.126H300.357ZM228.999 178.394H234.687C233.486 180.251 233.062 182.505 233.508 184.672L228.498 186.116C228.733 183.581 228.999 180.752 228.999 178.394ZM227.407 178.394V186.617C226.908 186.914 226.426 187.239 225.963 187.59L212.021 187.826C212.15 184.768 212.061 181.704 211.756 178.659L227.407 178.394ZM221.217 199.763H211.933V189.447L224.017 189.24C222.739 190.64 221.817 192.327 221.33 194.159C220.842 195.991 220.804 197.913 221.217 199.763ZM211.992 213.41H220.038C220.152 215.981 221.105 218.445 222.75 220.425C221.778 221.097 220.995 222.01 220.479 223.074C219.963 224.137 219.73 225.316 219.803 226.496H211.844C211.933 222.075 211.992 217.742 211.992 213.41ZM220.834 209.843C220.576 210.459 220.388 211.101 220.274 211.759H212.139V201.119H221.659C222.3 202.878 223.449 204.407 224.961 205.51C223.119 206.464 221.631 207.982 220.716 209.843H220.834ZM210.96 226.467H174.441C174.824 221.397 174.441 218.214 177.713 213.852L210.636 213.469C210.606 217.801 210.695 222.134 210.842 226.467H210.96ZM178.921 212.231C181.988 209.13 184.307 205.37 185.7 201.237H193.069V212.054L178.921 212.231ZM194.955 178.983L210.4 178.718C210.234 181.771 210.234 184.831 210.4 187.885L194.867 188.15C194.867 185.114 194.896 182.049 194.955 178.983ZM194.749 189.771L210.341 189.506V199.822H194.543C194.543 196.462 194.543 193.131 194.749 189.771ZM194.543 201.207H210.489V211.848L193.894 212.054C194.13 208.428 194.307 204.921 194.543 201.207ZM179.805 179.248L193.924 179.013L193.599 188.179L179.216 188.415C179.566 185.373 179.674 182.308 179.54 179.248H179.805ZM179.098 190.007L193.57 189.771L193.305 199.792H186.083C186.437 198.171 187.086 195.518 185.17 194.634C183.254 193.75 181.426 198.171 177.889 199.763C178.214 196.521 178.508 193.278 178.833 190.036L179.098 190.007ZM166.483 179.484L178.656 179.278C178.235 182.318 177.969 185.377 177.86 188.445H176.858C178.125 185.35 171.287 183.345 165.392 188.445C165.48 186.941 166.306 180.486 166.217 179.484H166.483ZM177.477 190.184C177.27 193.396 177.094 196.58 176.887 199.792H172.289C171.405 197.199 172.289 191.097 174.647 190.184H177.418H177.477ZM164.714 179.573L164.243 188.71H158.731C156.55 184.171 157.935 180.722 155.783 179.632L164.714 179.573ZM163.535 190.36C162.856 191.212 162.282 192.142 161.826 193.131L159.644 190.449L163.535 190.36ZM144.701 179.956L154.162 179.779C151.215 181.194 150.773 186.204 150.773 188.946H146.322C144.819 187.649 144.17 188.946 143.05 188.946L144.642 179.779L144.701 179.956ZM151.244 194.929C149.609 193.838 148.279 192.346 147.383 190.596H150.714C150.749 192.048 150.887 193.496 151.126 194.929H151.244ZM141.488 199.35L142.903 190.685C142.607 193.676 142.98 196.697 143.993 199.527L141.488 199.35ZM144.435 200.794C145.644 204.833 147.383 208.517 148.208 212.584L139.366 212.761L141.134 200.765L144.435 200.794ZM133.736 179.985H143.404C142.844 182.933 142.313 186.116 141.783 189.211C138.57 189.211 135.328 189.388 132.115 189.535C132.809 186.385 133.311 183.196 133.618 179.985H133.736ZM131.909 190.744H141.488C141.046 193.691 140.574 196.639 140.103 199.38H130.229C130.73 196.432 131.26 193.573 131.791 190.744H131.909ZM130.111 200.411C133.353 200.588 136.595 200.677 139.837 200.736C139.277 204.715 138.629 208.753 138.098 212.761C134.65 212.761 131.201 212.997 127.753 213.144C128.549 208.9 129.315 204.656 130.111 200.411ZM136.743 225.966H125.365C126.102 222.016 126.869 218.096 127.664 214.176L137.892 214.441C137.27 218.258 136.847 222.105 136.625 225.966H136.743ZM137.568 225.966L139.307 214.176H148.474C148.562 214.96 148.562 215.751 148.474 216.534L140.191 225.995L137.568 225.966ZM117.496 316.542C114.048 324.397 112.325 332.9 112.442 341.477C112.559 350.055 114.513 358.508 118.173 366.266C89.6419 346.989 95.7137 304.369 107.857 277.134C117.79 254.822 133.53 235.869 149.653 217.684C152.011 215.001 144.377 197.051 144.111 192.659C143.934 189.388 145.29 188.71 146.499 191.038C147.707 193.367 149.446 196.02 151.834 196.58C152.777 199.35 153.514 198.466 153.396 198.024C152.394 193.161 150.655 186.234 153.897 181.754C156.255 178.629 156.166 184.377 156.402 185.497C156.962 188.179 159.35 193.367 161.501 194.339C160.765 196.432 162.002 195.695 162.091 195.43C166.276 184.436 179.068 185.998 174.942 188.71C173.854 189.359 172.929 190.25 172.24 191.313C171.55 192.375 171.113 193.582 170.963 194.841C169.46 205.245 177.654 203.683 183.607 196.432C186.083 193.485 186.201 199.822 182.281 206.218C178.95 211.641 174.441 213.587 173.91 220.69C172.437 238.051 168.87 258.771 166.483 274.039C146.911 283.501 126.898 296.293 117.378 316.571L117.496 316.542ZM168.015 273.243C170.893 258.256 172.95 243.123 174.176 227.911H219.891C221.601 237.785 233.862 239.112 235.837 254.439C212.312 256.738 189.365 263.101 168.015 273.243ZM292.458 249.457C291.724 251.775 291.25 254.168 291.043 256.59C289.864 269.088 284.559 273.243 270.676 274.275C255.939 275.484 239.963 270.827 237.723 254.94C235.748 240.792 231.209 242.03 223.929 232.126C221.748 229.179 219.803 223.696 223.929 221.397C225.956 223.624 228.496 225.324 231.327 226.349C237.694 240.644 239.845 257.121 258.356 258.948C294.138 262.279 286.121 242.796 297.469 225.789C299.675 224.769 301.673 223.35 303.364 221.604C304.65 222.679 305.539 224.156 305.886 225.797C306.233 227.438 306.02 229.148 305.279 230.652C302.391 237.638 295.435 240.291 292.458 249.457ZM365.496 183.345C366.499 185.585 367.53 187.796 368.444 190.036C367 188.179 359.926 180.457 357.568 184.583C356.359 186.735 358.894 189.948 359.926 191.864C355.969 192.564 352.434 194.759 350.052 197.994C346.279 184.289 359.601 177.45 365.496 183.345ZM352.174 203.418C351.614 202.032 351.024 200.618 350.435 199.232C353.021 196.204 356.497 194.069 360.368 193.131C362.026 196.554 363.102 200.23 363.551 204.007C364.347 211.553 358.57 206.159 355.77 203.565C354.679 202.445 352.852 201.973 352.026 203.418H352.174ZM415.987 372.633C425.743 358.956 426.156 341.301 420.496 325.856C412.479 304.015 393.409 288.718 373.337 278.018C369.478 260.195 366.975 242.105 365.85 223.903C365.85 221.132 356.477 219.246 353.559 208.369C353.029 206.395 351.938 201.207 355.504 204.921C359.071 208.635 365.143 212.054 364.877 203.919C364.524 194.281 357.98 187.855 358.57 185.674C359.307 182.933 364.76 188.091 365.644 188.975C367.948 191.51 370.038 194.231 371.892 197.11C372.217 197.582 373.013 197.11 372.718 196.668C372.03 195.489 371.323 194.31 370.596 193.131C371.067 192.129 365.762 182.756 366.705 181.872C367.648 180.987 371.892 184.053 372.836 184.819C377.758 189.093 377.994 191.952 379.674 194.163C379.75 194.19 379.833 194.19 379.91 194.163C380.014 194.171 380.119 194.139 380.201 194.074C380.283 194.008 380.337 193.913 380.352 193.809C380.175 191.923 379.084 190.861 378.554 189.565C378.023 188.268 376.933 185.35 377.67 184.318C378.023 184.023 380.057 185.527 380.293 185.762C382.237 187.625 383.861 189.796 385.097 192.188C394.116 207.603 391.405 217.536 392.937 219.039C415.309 244.24 439.213 281.143 444.047 314.449C447.318 337.557 440.038 364.497 415.839 372.633H415.987Z" fill="black"/>
<path d="M202.205 51.652C202.882 51.4457 202.617 50.473 201.998 50.3846C191.269 50.5909 179.863 50.3846 169.281 50.6794C168.456 50.6794 168.574 51.9468 169.281 52.0647C174.705 52.9489 197.489 53.0963 202.205 51.652ZM483.6 209.283C487.609 207.544 507.18 199.645 509.509 198.319C509.553 198.28 509.588 198.232 509.612 198.179C509.636 198.126 509.648 198.068 509.648 198.009C509.648 197.951 509.636 197.893 509.612 197.839C509.588 197.786 509.553 197.738 509.509 197.7C509.461 197.628 509.394 197.571 509.316 197.535C509.239 197.498 509.152 197.484 509.067 197.493C504.115 198.525 488.081 206.159 483.099 208.635C482.834 208.841 483.188 209.46 483.6 209.283ZM285.913 140.076L223.426 141.02C226.109 171.32 286.709 171.791 285.913 140.076ZM285.913 75.2319C285.913 75.3598 285.961 75.483 286.049 75.5761C286.137 75.6693 286.257 75.7254 286.385 75.7329C296.377 75.9687 317.51 76.5877 325.498 75.4971C326.146 75.4971 325.94 74.4066 325.498 74.4066C314.209 74.4066 297.909 74.4066 286.532 74.7308C286.457 74.7126 286.379 74.712 286.304 74.7289C286.229 74.7458 286.158 74.7798 286.099 74.8283C286.039 74.8768 285.991 74.9384 285.959 75.0084C285.926 75.0784 285.911 75.1549 285.913 75.2319ZM200.436 31.0197C201.261 31.0197 200.908 29.8407 200.23 29.7228C179.922 30.3123 157.816 30.7544 138.008 31.1965C137.942 31.2072 137.879 31.231 137.822 31.2666C137.765 31.3023 137.716 31.3489 137.677 31.4039C137.639 31.4589 137.612 31.5211 137.598 31.5867C137.584 31.6523 137.583 31.7201 137.596 31.786C137.613 31.8893 137.662 31.9846 137.736 32.0586C137.81 32.1326 137.905 32.1816 138.008 32.1987C152.422 33.2303 181.72 31.6681 200.436 31.0197ZM211.784 24.27C212.462 24.27 212.668 23.091 211.784 23.0025C205.182 22.2067 140.072 23.2678 135.533 24.27C135.09 24.27 135.12 25.1542 135.533 25.1542C152.245 25.1247 192.301 23.9752 211.784 24.27ZM84.8949 235.309C87.1657 231.109 88.9081 226.644 90.0824 222.016C90.6312 220.426 90.7568 218.72 90.4467 217.066C90.1366 215.413 89.4016 213.868 88.314 212.584C89.3838 209.892 89.9339 207.022 89.9351 204.125C89.3456 199.321 84.2464 199.615 81.5053 203.3C70.4522 218.037 58.2497 241.617 58.6034 259.744C58.397 260.599 58.8392 261.571 59.6055 260.864C72.6914 247.899 82.3709 231.902 87.7834 214.294C91.4678 219.776 85.7791 229.238 83.6569 234.779C83.3917 235.516 84.5117 235.958 84.8949 235.309ZM59.7234 258.536C59.9396 255.265 60.3927 252.014 61.0792 248.809L65.6184 252.081C63.7025 254.203 61.7277 256.413 59.7234 258.536ZM87.1055 211.376C85.1095 209.701 82.7125 208.573 80.1494 208.104C81.1343 206.305 82.3209 204.624 83.6864 203.093C85.0128 201.856 87.5476 201.354 88.314 203.447C88.5741 206.13 88.1587 208.836 87.1055 211.317V211.376ZM162.119 61.2313C160.822 61.7619 153.276 73.0212 151.891 74.9961C150.176 72.7172 148.197 70.6494 145.996 68.8358C145.873 68.7788 145.734 68.7683 145.604 68.8063C145.474 68.8442 145.362 68.928 145.289 69.0422C145.246 69.1561 145.246 69.2819 145.289 69.3959C146.969 72.1479 148.946 74.7078 151.184 77.0298C151.264 77.1183 151.362 77.1891 151.471 77.2375C151.58 77.2859 151.698 77.311 151.817 77.311C151.937 77.311 152.055 77.2859 152.164 77.2375C152.273 77.1891 152.371 77.1183 152.451 77.0298V76.8825L162.119 63.6777C163.475 61.7619 163.092 60.7303 162.119 61.2313ZM338.968 45.7571C339.587 45.7571 339.704 44.5781 338.968 44.4896C320.577 43.5751 302.147 43.8409 283.791 45.2855C283.172 45.2855 283.231 46.376 283.791 46.3466C297.703 46.2287 323.788 46.6708 338.968 45.7571Z" fill="black"/>
<path d="M162.12 79.093C163.299 78.6214 160.941 69.8379 160.617 68.4526C160.594 68.3303 160.525 68.2215 160.423 68.1495C160.322 68.0776 160.196 68.048 160.073 68.0672C159.95 68.0864 159.84 68.1529 159.765 68.2524C159.69 68.3519 159.658 68.4766 159.673 68.6C160.027 71.7538 160.381 74.9371 160.97 78.0319C156.048 78.4151 151.597 78.3856 146.793 78.592C145.909 74.7602 145.142 69.7495 143.845 65.9473C147.553 66.2589 151.28 66.2589 154.987 65.9473C157.433 65.9473 157.257 64.4146 155.164 64.4441C153.926 64.4441 143.374 64.2377 143.374 65.5052C141.989 65.5052 144.907 77.8551 145.083 78.6804C145.114 78.8273 145.19 78.9608 145.302 79.0614C145.413 79.1621 145.553 79.2248 145.702 79.2404C146.056 80.7731 161.56 80.5373 162.12 79.093ZM340.619 68.7474C340.593 68.6328 340.53 68.5302 340.439 68.4555C340.348 68.3808 340.236 68.3383 340.118 68.3347C322.256 67.8631 303.157 68.7179 285.059 68.6884C284.529 68.6884 284.499 69.5727 285.059 69.6316C300.917 70.6927 325.44 71.3412 340.236 69.3958C340.369 69.3547 340.482 69.2655 340.553 69.1456C340.624 69.0257 340.647 68.8838 340.619 68.7474ZM146.115 57.7828C150.25 57.898 154.387 57.7109 158.494 57.2227C161.059 57.8712 157.139 41.7779 156.667 41.0411C156.605 40.9022 156.5 40.787 156.367 40.7127C156.234 40.6384 156.081 40.6088 155.93 40.6284C153.277 40.6284 140.957 40.6284 139.218 41.0116C137.096 39.3021 140.191 53.8331 140.633 55.5721C141.488 58.4901 143.374 57.7828 146.115 57.7828ZM139.572 42.0137C145.01 42.6779 150.504 42.757 155.96 42.2495L157.846 55.8669L142.401 56.6627C142.519 55.6606 139.925 43.9591 139.572 42.0137ZM326.648 51.9467C326.805 51.9467 326.954 51.8846 327.065 51.7741C327.176 51.6635 327.238 51.5136 327.238 51.3572C327.238 51.2009 327.176 51.051 327.065 50.9404C326.954 50.8299 326.805 50.7678 326.648 50.7678C322.993 50.0309 291.573 51.1509 285.059 51.7109C284.558 51.7109 284.558 52.5657 285.059 52.5952C288.596 52.7426 323.141 52.831 326.648 51.9467ZM79.1483 145.441C79.7084 145.441 83.8643 143.083 84.837 146.915C86.1928 152.161 91.4983 149.007 92.353 144.999C93.4436 140.047 88.7276 136.156 83.1569 136.156C71.8386 136.156 74.4324 145.971 79.1483 145.441ZM83.1569 137.306C89.5235 137.512 93.4436 143.525 89.5824 147.062C86.2812 150.009 86.6349 145.765 85.0433 144.114C81.86 141.167 79.3252 144.733 77.5272 143.23C73.8429 140.283 80.8873 137.129 83.1569 137.306ZM152.187 89.2913C147.559 89.2913 147.382 88.525 147.972 93.0346C148.149 94.302 149.063 103.262 150.595 103.351C150.919 104.766 164.154 104.265 165.834 103.763C168.103 103.763 165.834 96.7779 165.834 95.9821C163.888 85.7249 166.305 88.9081 152.187 89.2913ZM151.332 102.673C150.595 98.959 150.035 94.0368 148.974 90.4998C153.8 90.9714 158.668 90.793 163.446 89.9692C163.746 94.073 164.387 98.1448 165.362 102.142C160.764 102.349 155.989 102.584 151.332 102.673ZM345.247 22.5309C339.823 22.0298 261.715 22.5309 251.812 23.2972C251.684 23.319 251.569 23.3895 251.492 23.494C251.415 23.5984 251.382 23.7287 251.399 23.8573C251.42 23.9589 251.47 24.0521 251.544 24.1254C251.617 24.1988 251.71 24.249 251.812 24.2699C260.212 24.712 339.234 24.5057 345.247 23.8278C345.419 23.8278 345.584 23.7595 345.705 23.6379C345.827 23.5163 345.895 23.3513 345.895 23.1793C345.895 23.0074 345.827 22.8424 345.705 22.7208C345.584 22.5992 345.419 22.5309 345.247 22.5309ZM212.227 44.1949C212.905 44.0475 212.669 43.1338 212.08 43.0159L167.307 44.1359C167.242 44.1429 167.179 44.1633 167.123 44.1959C167.066 44.2284 167.017 44.2724 166.978 44.3251C166.939 44.3778 166.912 44.4379 166.897 44.5018C166.883 44.5656 166.882 44.6318 166.895 44.696C166.912 44.7992 166.961 44.8945 167.035 44.9685C167.109 45.0425 167.204 45.0915 167.307 45.1086C178.537 45.9339 202.471 46.1697 212.227 44.1949ZM389.754 127.049C389.96 129.289 392.2 151.631 393.025 153.252C398.92 164.747 420.614 165.042 421.085 148.035C421.911 140.961 424.77 120.652 423.65 115.612C423.974 113.962 425.683 106.77 426.008 102.968C426.008 102.349 427.187 85.5185 424.829 88.0828C421.681 92.2729 418.891 96.7195 416.487 101.376C416.075 103.174 415.662 104.942 415.22 106.711C413.916 106.219 412.562 105.873 411.182 105.679C411.182 104.471 410.298 98.5759 409.885 96.2179C407.851 92.2683 405.758 88.7313 403.99 84.6343C401.485 78.4741 401.426 78.3562 400.718 85.1354C399.537 92.0413 399.537 99.0976 400.718 106.004C387.366 108.774 388.752 116.644 389.724 127.049H389.754ZM421.999 94.6263C422.36 94.975 422.791 95.2423 423.264 95.4101C423.737 95.5779 424.24 95.6423 424.74 95.5989V103.027C423.498 103.147 422.245 103.016 421.055 102.641C419.865 102.267 418.762 101.656 417.814 100.845C419.258 98.8117 420.761 96.719 421.999 94.6263ZM417.755 102.378C419.707 103.766 422.05 104.499 424.445 104.471C423.473 109.953 422.5 115.406 421.734 120.918C420.732 124.514 415.839 125.811 412.656 126.253C414.601 118.471 416.075 110.101 417.755 102.29V102.378ZM411.86 124.131C411.716 124.871 411.618 125.619 411.565 126.371L404.373 126.547L401.426 98.7822C402.759 99.1846 404.17 99.2553 405.536 98.9881C406.902 98.721 408.183 98.1242 409.266 97.2495C409.266 97.2495 411.182 123.688 411.86 124.042V124.131ZM401.779 89.3503C402.231 89.4682 402.702 89.4924 403.163 89.4214C403.624 89.3505 404.066 89.1858 404.462 88.9376L408.5 96.1884C407.441 96.9771 406.214 97.51 404.916 97.7452C403.617 97.9805 402.281 97.9117 401.013 97.5443C400.962 94.7636 401.219 91.9859 401.779 89.2618V89.3503ZM422.205 123.305C421.675 130.733 420.732 146.413 418.816 153.428C415.426 162.536 400.659 162.684 394.145 153.428C392.908 143.201 391.67 132.796 390.461 122.716C395.973 130.703 417.401 129.731 422.205 123.217V123.305Z" fill="black"/>
<path d="M25.976 155.786C30.4622 158.129 35.1983 159.958 40.0945 161.239C30.692 174.179 57.6025 192.63 82.214 182.785C93.5028 178.276 104.792 163.951 93.7386 154.018C105.529 144.498 109.684 130.762 109.183 115.701C108.417 92.4746 98.1598 75.3792 74.6684 69.8674C63.095 67.1591 50.9672 68.096 39.9471 72.5496L35.3785 64.6504C36.8228 63.8841 38.326 63.1472 39.7997 62.4987C43.6904 61.1724 42.5114 58.3133 40.2124 59.1681C-4.94301 75.6445 -15.3771 135.036 25.976 155.786ZM40.4482 159.176C39.6229 156.229 41.8335 153.281 40.8019 150.068C38.4439 142.434 28.5698 146.856 26.0645 141.698C23.3233 136.068 30.6331 135.095 32.1068 131.057C32.3674 130.35 32.4338 129.586 32.2991 128.845C32.1643 128.104 31.8333 127.412 31.3405 126.842C27.0961 121.537 17.281 127.137 20.0811 114.758C22.2033 105.414 31.2226 100.993 37.766 105.119C44.3094 109.246 48.2295 112.016 56.5119 107.183C70.3061 99.077 68.5966 116.025 64.3817 121.154C62.1416 123.924 58.0741 123.777 54.9498 124.956C44.7515 128.788 44.8104 135.655 52.8865 137.335C56.0109 137.984 60.0194 137.689 62.4658 140.047C69.0977 146.502 55.3919 160.296 51.0591 162.566C48.7306 162.094 41.6272 160.709 40.4482 159.176ZM77.8517 72.4612C95.2123 77.8551 104.379 90.4114 106.855 108.362C108.032 116.108 107.742 124.007 106 131.647C105.293 132.619 95.3302 135.36 92.1175 131.234C90.8771 129.566 90.0489 127.629 89.7006 125.579C89.3522 123.53 89.4936 121.428 90.1132 119.444C92.0291 114.492 98.543 110.13 96.5387 105.06C93.7681 98.0453 85.6625 107.625 82.2434 105.65C77.1148 102.702 86.7236 97.0432 75.759 95.0094C71.7209 94.2726 68.4197 95.9232 65.4428 91.4725C58.6341 81.2742 76.3485 72.4317 77.8517 72.3728V72.4612ZM44.2209 85.5185C44.3481 85.7195 44.5408 85.8703 44.7664 85.9455C44.992 86.0207 45.2366 86.0156 45.4589 85.9312C45.7142 85.8263 45.9186 85.626 46.0286 85.3728C46.1387 85.1197 46.1458 84.8336 46.0484 84.5754L40.684 74.1118C51.6164 69.7281 63.6527 68.903 75.0811 71.7538C60.3437 76.6172 58.6046 93.2409 69.1861 96.1C71.4262 96.719 81.4476 95.8347 79.7086 100.109C79.3556 100.802 79.1577 101.564 79.1285 102.341C79.0994 103.119 79.2397 103.893 79.5397 104.611C79.8397 105.329 80.2923 105.973 80.8661 106.498C81.4398 107.024 82.121 107.418 82.8624 107.654C86.9889 108.391 91.4101 102.172 94.446 104.707C99.7514 109.128 85.8983 115.966 88.2563 125.811C90.0248 133.356 93.1491 135.744 100.813 134.653C102.491 134.509 104.119 134.006 105.587 133.179C99.2504 155.374 75.5527 165.602 53.8887 162.919C58.2509 158.911 65.0302 150.953 65.6786 145.234C66.6807 135.095 55.0382 137.129 50.7643 134.889C44.8694 131.941 53.2992 126.813 58.6931 125.634C60.4605 125.343 62.1713 124.776 63.7627 123.954C72.6052 118.53 70.1588 96.719 57.3372 104.766C46.3726 111.633 42.983 105.797 37.8839 103.174C29.7193 99.018 18.5189 105.561 17.9589 117.911C17.6347 126.312 24.5613 124.514 28.5993 126.754C29.323 127.025 29.9272 127.544 30.3049 128.219C30.6826 128.893 30.8093 129.679 30.6625 130.438C29.7193 133.386 25.4455 133.975 24.2665 137.542C23.8003 138.933 23.8173 140.44 24.3148 141.82C24.8123 143.201 25.7612 144.372 27.0077 145.146C30.8689 147.386 37.707 145.441 39.3281 150.776C40.1239 153.37 38.5618 156.022 38.7386 158.646C31.2185 155.943 24.5967 151.205 19.611 144.96C14.6254 138.715 11.4718 131.208 10.5018 123.276C7.84905 103.233 20.0811 83.7501 38.0607 75.2318C39.9176 78.6509 42.2461 82.1879 44.2209 85.5185ZM17.6936 77.6488C22.1183 73.0606 27.2172 69.1743 32.8142 66.1241C34.457 68.6446 35.9624 71.252 37.3238 73.935C28.0732 78.2326 20.3744 85.2805 15.2785 94.1165C10.1827 102.953 7.93806 113.146 8.8512 123.305C9.46564 129.128 11.2908 134.758 14.2094 139.834C17.1281 144.91 21.0758 149.32 25.7992 152.78C-2.3787 137.129 -3.55769 100.226 17.6936 77.6488ZM332.278 98.4285C329.743 97.8685 291.839 97.6916 286.474 98.4285C286.341 98.4285 286.214 98.4813 286.12 98.5753C286.026 98.6692 285.973 98.7967 285.973 98.9296C285.973 99.0625 286.026 99.1899 286.12 99.2839C286.214 99.3779 286.341 99.4306 286.474 99.4306C288.508 99.7254 328.122 100.403 332.278 99.4306C332.416 99.4001 332.539 99.3236 332.627 99.2137C332.715 99.1039 332.763 98.9672 332.763 98.8264C332.763 98.6856 332.715 98.549 332.627 98.4391C332.539 98.3292 332.416 98.2527 332.278 98.2222V98.4285ZM344.864 30.6365C316.421 30.9607 279.666 29.988 254.023 30.6365C253.315 30.6365 253.374 31.6386 254.023 31.6976C264.781 32.8766 336.198 32.7882 344.864 31.6976C344.948 31.6904 345.03 31.6661 345.104 31.6261C345.179 31.5861 345.244 31.5313 345.297 31.465C345.349 31.3987 345.388 31.3224 345.409 31.2407C345.431 31.1591 345.436 31.0738 345.424 30.9902C345.377 30.8819 345.298 30.7903 345.198 30.7272C345.098 30.6642 344.982 30.6326 344.864 30.6365ZM341.71 92.0325C324.467 91.6493 302.921 92.7104 284.558 92.2388C284.028 92.2388 283.91 93.0051 284.558 93.0641C295.847 94.1841 331.188 95.3042 341.828 93.2409C342.388 93.0936 342.447 92.0325 341.71 92.0325Z" fill="black"/>
</svg>
