<svg width="193" height="172" viewBox="0 0 193 172" fill="none" xmlns="http://www.w3.org/2000/svg">
<path d="M65.0824 107L62.2983 96.8182H63.5511L65.679 105.111H65.7784L67.946 96.8182H69.3381L71.5057 105.111H71.6051L73.733 96.8182H74.9858L72.2017 107H70.929L68.6818 98.8864H68.6023L66.3551 107H65.0824ZM78.8537 107.159C78.1179 107.159 77.4832 106.997 76.9496 106.672C76.4193 106.344 76.0099 105.886 75.7216 105.3C75.4366 104.71 75.294 104.024 75.294 103.241C75.294 102.459 75.4366 101.77 75.7216 101.173C76.0099 100.573 76.411 100.106 76.9247 99.7713C77.4418 99.4332 78.045 99.2642 78.7344 99.2642C79.1321 99.2642 79.5249 99.3305 79.9126 99.4631C80.3004 99.5956 80.6534 99.8111 80.9716 100.109C81.2898 100.404 81.5433 100.795 81.7322 101.283C81.9212 101.77 82.0156 102.37 82.0156 103.082V103.58H76.1293V102.565H80.8224C80.8224 102.134 80.7363 101.75 80.5639 101.412C80.3949 101.074 80.1529 100.807 79.8381 100.612C79.5265 100.416 79.1586 100.318 78.7344 100.318C78.267 100.318 77.8627 100.434 77.5213 100.666C77.1832 100.895 76.9231 101.193 76.7408 101.561C76.5585 101.929 76.4673 102.323 76.4673 102.744V103.42C76.4673 103.997 76.5668 104.486 76.7656 104.887C76.9678 105.285 77.2479 105.588 77.6058 105.797C77.9638 106.002 78.3797 106.105 78.8537 106.105C79.1619 106.105 79.4403 106.062 79.6889 105.976C79.9408 105.886 80.1579 105.754 80.3402 105.578C80.5225 105.399 80.6634 105.177 80.7628 104.912L81.8963 105.23C81.777 105.615 81.5765 105.953 81.2947 106.244C81.013 106.533 80.665 106.758 80.2507 106.92C79.8364 107.08 79.3707 107.159 78.8537 107.159ZM84.9737 96.8182V107H83.8004V96.8182H84.9737ZM90.225 107.159C89.5091 107.159 88.8926 106.99 88.3755 106.652C87.8585 106.314 87.4608 105.848 87.1824 105.255C86.9039 104.662 86.7647 103.984 86.7647 103.222C86.7647 102.446 86.9073 101.762 87.1923 101.168C87.4806 100.572 87.8817 100.106 88.3954 99.7713C88.9125 99.4332 89.5157 99.2642 90.2051 99.2642C90.742 99.2642 91.2259 99.3636 91.6568 99.5625C92.0877 99.7614 92.4406 100.04 92.7157 100.398C92.9908 100.756 93.1615 101.173 93.2278 101.651H92.0545C91.965 101.303 91.7662 100.994 91.4579 100.726C91.153 100.454 90.742 100.318 90.225 100.318C89.7676 100.318 89.3665 100.437 89.0218 100.676C88.6805 100.911 88.4136 101.245 88.2214 101.675C88.0325 102.103 87.938 102.605 87.938 103.182C87.938 103.772 88.0308 104.286 88.2164 104.723C88.4054 105.161 88.6705 105.5 89.0119 105.742C89.3566 105.984 89.7609 106.105 90.225 106.105C90.5299 106.105 90.8066 106.052 91.0552 105.946C91.3038 105.84 91.5143 105.688 91.6866 105.489C91.859 105.29 91.9816 105.051 92.0545 104.773H93.2278C93.1615 105.223 92.9975 105.629 92.7356 105.991C92.4771 106.349 92.1341 106.634 91.7065 106.846C91.2823 107.055 90.7884 107.159 90.225 107.159ZM98.0453 107.159C97.3559 107.159 96.751 106.995 96.2306 106.667C95.7136 106.339 95.3092 105.88 95.0176 105.29C94.7292 104.7 94.585 104.01 94.585 103.222C94.585 102.426 94.7292 101.732 95.0176 101.138C95.3092 100.545 95.7136 100.085 96.2306 99.7564C96.751 99.4283 97.3559 99.2642 98.0453 99.2642C98.7347 99.2642 99.3379 99.4283 99.8549 99.7564C100.375 100.085 100.78 100.545 101.068 101.138C101.36 101.732 101.506 102.426 101.506 103.222C101.506 104.01 101.36 104.7 101.068 105.29C100.78 105.88 100.375 106.339 99.8549 106.667C99.3379 106.995 98.7347 107.159 98.0453 107.159ZM98.0453 106.105C98.569 106.105 98.9998 105.971 99.3379 105.702C99.676 105.434 99.9262 105.081 100.089 104.643C100.251 104.206 100.332 103.732 100.332 103.222C100.332 102.711 100.251 102.236 100.089 101.795C99.9262 101.354 99.676 100.998 99.3379 100.726C98.9998 100.454 98.569 100.318 98.0453 100.318C97.5216 100.318 97.0907 100.454 96.7527 100.726C96.4146 100.998 96.1644 101.354 96.002 101.795C95.8395 102.236 95.7583 102.711 95.7583 103.222C95.7583 103.732 95.8395 104.206 96.002 104.643C96.1644 105.081 96.4146 105.434 96.7527 105.702C97.0907 105.971 97.5216 106.105 98.0453 106.105ZM103.297 107V99.3636H104.43V100.557H104.529C104.689 100.149 104.945 99.8326 105.3 99.6072C105.655 99.3786 106.081 99.2642 106.578 99.2642C107.082 99.2642 107.501 99.3786 107.836 99.6072C108.174 99.8326 108.437 100.149 108.626 100.557H108.706C108.901 100.162 109.194 99.8492 109.586 99.6172C109.977 99.3819 110.446 99.2642 110.993 99.2642C111.675 99.2642 112.234 99.478 112.668 99.9055C113.102 100.33 113.319 100.991 113.319 101.889V107H112.146V101.889C112.146 101.326 111.992 100.923 111.684 100.681C111.375 100.439 111.012 100.318 110.595 100.318C110.058 100.318 109.642 100.481 109.347 100.805C109.052 101.127 108.904 101.535 108.904 102.028V107H107.711V101.77C107.711 101.336 107.57 100.986 107.289 100.721C107.007 100.452 106.644 100.318 106.2 100.318C105.895 100.318 105.61 100.399 105.345 100.562C105.083 100.724 104.871 100.95 104.708 101.238C104.549 101.523 104.47 101.853 104.47 102.227V107H103.297ZM118.666 107.159C117.93 107.159 117.296 106.997 116.762 106.672C116.232 106.344 115.822 105.886 115.534 105.3C115.249 104.71 115.107 104.024 115.107 103.241C115.107 102.459 115.249 101.77 115.534 101.173C115.822 100.573 116.223 100.106 116.737 99.7713C117.254 99.4332 117.857 99.2642 118.547 99.2642C118.945 99.2642 119.337 99.3305 119.725 99.4631C120.113 99.5956 120.466 99.8111 120.784 100.109C121.102 100.404 121.356 100.795 121.545 101.283C121.734 101.77 121.828 102.37 121.828 103.082V103.58H115.942V102.565H120.635C120.635 102.134 120.549 101.75 120.376 101.412C120.207 101.074 119.965 100.807 119.651 100.612C119.339 100.416 118.971 100.318 118.547 100.318C118.08 100.318 117.675 100.434 117.334 100.666C116.996 100.895 116.736 101.193 116.553 101.561C116.371 101.929 116.28 102.323 116.28 102.744V103.42C116.28 103.997 116.379 104.486 116.578 104.887C116.78 105.285 117.06 105.588 117.418 105.797C117.776 106.002 118.192 106.105 118.666 106.105C118.974 106.105 119.253 106.062 119.501 105.976C119.753 105.886 119.97 105.754 120.153 105.578C120.335 105.399 120.476 105.177 120.575 104.912L121.709 105.23C121.589 105.615 121.389 105.953 121.107 106.244C120.826 106.533 120.478 106.758 120.063 106.92C119.649 107.08 119.183 107.159 118.666 107.159ZM130.871 99.3636V100.358H126.914V99.3636H130.871ZM128.067 97.5341H129.241V104.812C129.241 105.144 129.289 105.393 129.385 105.558C129.484 105.721 129.61 105.83 129.763 105.886C129.919 105.939 130.083 105.966 130.255 105.966C130.384 105.966 130.49 105.959 130.573 105.946C130.656 105.929 130.722 105.916 130.772 105.906L131.011 106.96C130.931 106.99 130.82 107.02 130.678 107.05C130.535 107.083 130.354 107.099 130.136 107.099C129.804 107.099 129.479 107.028 129.161 106.886C128.846 106.743 128.585 106.526 128.376 106.234C128.17 105.943 128.067 105.575 128.067 105.131V97.5341ZM135.657 107.159C134.967 107.159 134.362 106.995 133.842 106.667C133.325 106.339 132.921 105.88 132.629 105.29C132.341 104.7 132.196 104.01 132.196 103.222C132.196 102.426 132.341 101.732 132.629 101.138C132.921 100.545 133.325 100.085 133.842 99.7564C134.362 99.4283 134.967 99.2642 135.657 99.2642C136.346 99.2642 136.949 99.4283 137.466 99.7564C137.987 100.085 138.391 100.545 138.679 101.138C138.971 101.732 139.117 102.426 139.117 103.222C139.117 104.01 138.971 104.7 138.679 105.29C138.391 105.88 137.987 106.339 137.466 106.667C136.949 106.995 136.346 107.159 135.657 107.159ZM135.657 106.105C136.18 106.105 136.611 105.971 136.949 105.702C137.287 105.434 137.538 105.081 137.7 104.643C137.862 104.206 137.944 103.732 137.944 103.222C137.944 102.711 137.862 102.236 137.7 101.795C137.538 101.354 137.287 100.998 136.949 100.726C136.611 100.454 136.18 100.318 135.657 100.318C135.133 100.318 134.702 100.454 134.364 100.726C134.026 100.998 133.776 101.354 133.613 101.795C133.451 102.236 133.37 102.711 133.37 103.222C133.37 103.732 133.451 104.206 133.613 104.643C133.776 105.081 134.026 105.434 134.364 105.702C134.702 105.971 135.133 106.105 135.657 106.105ZM144.845 107V99.3636H145.979V100.557H146.078C146.237 100.149 146.494 99.8326 146.849 99.6072C147.204 99.3786 147.629 99.2642 148.127 99.2642C148.63 99.2642 149.05 99.3786 149.384 99.6072C149.722 99.8326 149.986 100.149 150.175 100.557H150.254C150.45 100.162 150.743 99.8492 151.134 99.6172C151.526 99.3819 151.994 99.2642 152.541 99.2642C153.224 99.2642 153.783 99.478 154.217 99.9055C154.651 100.33 154.868 100.991 154.868 101.889V107H153.695V101.889C153.695 101.326 153.541 100.923 153.232 100.681C152.924 100.439 152.561 100.318 152.144 100.318C151.607 100.318 151.191 100.481 150.896 100.805C150.601 101.127 150.453 101.535 150.453 102.028V107H149.26V101.77C149.26 101.336 149.119 100.986 148.838 100.721C148.556 100.452 148.193 100.318 147.749 100.318C147.444 100.318 147.159 100.399 146.894 100.562C146.632 100.724 146.42 100.95 146.257 101.238C146.098 101.523 146.019 101.853 146.019 102.227V107H144.845ZM157.496 109.864C157.297 109.864 157.119 109.847 156.964 109.814C156.808 109.784 156.7 109.754 156.64 109.724L156.939 108.69C157.224 108.763 157.476 108.79 157.694 108.77C157.913 108.75 158.107 108.652 158.276 108.477C158.448 108.304 158.606 108.024 158.748 107.636L158.967 107.04L156.143 99.3636H157.416L159.524 105.449H159.604L161.711 99.3636H162.984L159.743 108.114C159.597 108.508 159.416 108.835 159.201 109.093C158.985 109.355 158.735 109.549 158.45 109.675C158.168 109.801 157.85 109.864 157.496 109.864ZM63.0739 126.864V116.364H64.2074V117.577H64.3466C64.4328 117.444 64.5521 117.275 64.7045 117.07C64.8603 116.861 65.0824 116.675 65.3707 116.513C65.6624 116.347 66.0568 116.264 66.554 116.264C67.197 116.264 67.7637 116.425 68.2543 116.746C68.7448 117.068 69.1276 117.524 69.4027 118.114C69.6778 118.704 69.8153 119.4 69.8153 120.202C69.8153 121.01 69.6778 121.711 69.4027 122.305C69.1276 122.895 68.7464 123.352 68.2592 123.677C67.772 123.998 67.2102 124.159 66.5739 124.159C66.0833 124.159 65.6906 124.078 65.3956 123.915C65.1006 123.75 64.8736 123.562 64.7145 123.354C64.5554 123.142 64.4328 122.966 64.3466 122.827H64.2472V126.864H63.0739ZM64.2273 120.182C64.2273 120.759 64.3118 121.267 64.4808 121.708C64.6499 122.146 64.8968 122.489 65.2216 122.737C65.5464 122.982 65.9441 123.105 66.4148 123.105C66.9053 123.105 67.3146 122.976 67.6428 122.717C67.9742 122.455 68.2228 122.104 68.3885 121.663C68.5575 121.219 68.642 120.725 68.642 120.182C68.642 119.645 68.5592 119.161 68.3935 118.73C68.2311 118.296 67.9841 117.953 67.6527 117.701C67.3246 117.446 66.9119 117.318 66.4148 117.318C65.9375 117.318 65.5365 117.439 65.2116 117.681C64.8868 117.92 64.6416 118.254 64.4759 118.685C64.3101 119.113 64.2273 119.612 64.2273 120.182ZM74.7074 124.159C74.018 124.159 73.4131 123.995 72.8928 123.667C72.3757 123.339 71.9714 122.88 71.6797 122.29C71.3913 121.7 71.2472 121.01 71.2472 120.222C71.2472 119.426 71.3913 118.732 71.6797 118.138C71.9714 117.545 72.3757 117.085 72.8928 116.756C73.4131 116.428 74.018 116.264 74.7074 116.264C75.3968 116.264 76 116.428 76.517 116.756C77.0374 117.085 77.4418 117.545 77.7301 118.138C78.0218 118.732 78.1676 119.426 78.1676 120.222C78.1676 121.01 78.0218 121.7 77.7301 122.29C77.4418 122.88 77.0374 123.339 76.517 123.667C76 123.995 75.3968 124.159 74.7074 124.159ZM74.7074 123.105C75.2311 123.105 75.6619 122.971 76 122.702C76.3381 122.434 76.5883 122.081 76.7507 121.643C76.9131 121.206 76.9943 120.732 76.9943 120.222C76.9943 119.711 76.9131 119.236 76.7507 118.795C76.5883 118.354 76.3381 117.998 76 117.726C75.6619 117.454 75.2311 117.318 74.7074 117.318C74.1837 117.318 73.7528 117.454 73.4148 117.726C73.0767 117.998 72.8265 118.354 72.6641 118.795C72.5017 119.236 72.4205 119.711 72.4205 120.222C72.4205 120.732 72.5017 121.206 72.6641 121.643C72.8265 122.081 73.0767 122.434 73.4148 122.702C73.7528 122.971 74.1837 123.105 74.7074 123.105ZM79.9586 124V116.364H81.0922V117.517H81.1717C81.3109 117.139 81.5628 116.833 81.9274 116.597C82.292 116.362 82.7029 116.244 83.1603 116.244C83.2465 116.244 83.3542 116.246 83.4835 116.249C83.6127 116.253 83.7105 116.258 83.7768 116.264V117.457C83.737 117.447 83.6459 117.433 83.5034 117.413C83.3642 117.389 83.2167 117.378 83.0609 117.378C82.6897 117.378 82.3583 117.456 82.0666 117.612C81.7782 117.764 81.5495 117.976 81.3805 118.248C81.2148 118.516 81.1319 118.823 81.1319 119.168V124H79.9586ZM88.9672 116.364V117.358H85.0098V116.364H88.9672ZM86.1632 114.534H87.3365V121.812C87.3365 122.144 87.3845 122.393 87.4806 122.558C87.5801 122.721 87.706 122.83 87.8585 122.886C88.0143 122.939 88.1783 122.966 88.3507 122.966C88.4799 122.966 88.586 122.959 88.6689 122.946C88.7517 122.929 88.818 122.916 88.8677 122.906L89.1064 123.96C89.0268 123.99 88.9158 124.02 88.7733 124.05C88.6307 124.083 88.4501 124.099 88.2314 124.099C87.8999 124.099 87.5751 124.028 87.2569 123.886C86.9421 123.743 86.6802 123.526 86.4714 123.234C86.2659 122.943 86.1632 122.575 86.1632 122.131V114.534ZM94.1326 116.364V117.358H90.0162V116.364H94.1326ZM91.2491 124V115.31C91.2491 114.872 91.3519 114.508 91.5574 114.216C91.7628 113.924 92.0297 113.705 92.3578 113.56C92.6859 113.414 93.0323 113.341 93.3968 113.341C93.6852 113.341 93.9205 113.364 94.1028 113.411C94.2851 113.457 94.421 113.5 94.5105 113.54L94.1724 114.554C94.1127 114.534 94.0299 114.509 93.9238 114.479C93.8211 114.45 93.6852 114.435 93.5162 114.435C93.1284 114.435 92.8483 114.532 92.676 114.728C92.5069 114.924 92.4224 115.21 92.4224 115.588V124H91.2491ZM98.5648 124.159C97.8754 124.159 97.2705 123.995 96.7502 123.667C96.2331 123.339 95.8288 122.88 95.5371 122.29C95.2488 121.7 95.1046 121.01 95.1046 120.222C95.1046 119.426 95.2488 118.732 95.5371 118.138C95.8288 117.545 96.2331 117.085 96.7502 116.756C97.2705 116.428 97.8754 116.264 98.5648 116.264C99.2542 116.264 99.8574 116.428 100.374 116.756C100.895 117.085 101.299 117.545 101.588 118.138C101.879 118.732 102.025 119.426 102.025 120.222C102.025 121.01 101.879 121.7 101.588 122.29C101.299 122.88 100.895 123.339 100.374 123.667C99.8574 123.995 99.2542 124.159 98.5648 124.159ZM98.5648 123.105C99.0885 123.105 99.5194 122.971 99.8574 122.702C100.195 122.434 100.446 122.081 100.608 121.643C100.771 121.206 100.852 120.732 100.852 120.222C100.852 119.711 100.771 119.236 100.608 118.795C100.446 118.354 100.195 117.998 99.8574 117.726C99.5194 117.454 99.0885 117.318 98.5648 117.318C98.0411 117.318 97.6103 117.454 97.2722 117.726C96.9341 117.998 96.6839 118.354 96.5215 118.795C96.3591 119.236 96.2779 119.711 96.2779 120.222C96.2779 120.732 96.3591 121.206 96.5215 121.643C96.6839 122.081 96.9341 122.434 97.2722 122.702C97.6103 122.971 98.0411 123.105 98.5648 123.105ZM104.989 113.818V124H103.816V113.818H104.989ZM107.138 124V116.364H108.312V124H107.138ZM107.735 115.091C107.506 115.091 107.309 115.013 107.143 114.857C106.981 114.701 106.9 114.514 106.9 114.295C106.9 114.077 106.981 113.889 107.143 113.734C107.309 113.578 107.506 113.5 107.735 113.5C107.964 113.5 108.159 113.578 108.322 113.734C108.487 113.889 108.57 114.077 108.57 114.295C108.57 114.514 108.487 114.701 108.322 114.857C108.159 115.013 107.964 115.091 107.735 115.091ZM113.563 124.159C112.873 124.159 112.269 123.995 111.748 123.667C111.231 123.339 110.827 122.88 110.535 122.29C110.247 121.7 110.103 121.01 110.103 120.222C110.103 119.426 110.247 118.732 110.535 118.138C110.827 117.545 111.231 117.085 111.748 116.756C112.269 116.428 112.873 116.264 113.563 116.264C114.252 116.264 114.855 116.428 115.373 116.756C115.893 117.085 116.297 117.545 116.586 118.138C116.877 118.732 117.023 119.426 117.023 120.222C117.023 121.01 116.877 121.7 116.586 122.29C116.297 122.88 115.893 123.339 115.373 123.667C114.855 123.995 114.252 124.159 113.563 124.159ZM113.563 123.105C114.087 123.105 114.517 122.971 114.855 122.702C115.194 122.434 115.444 122.081 115.606 121.643C115.769 121.206 115.85 120.732 115.85 120.222C115.85 119.711 115.769 119.236 115.606 118.795C115.444 118.354 115.194 117.998 114.855 117.726C114.517 117.454 114.087 117.318 113.563 117.318C113.039 117.318 112.608 117.454 112.27 117.726C111.932 117.998 111.682 118.354 111.52 118.795C111.357 119.236 111.276 119.711 111.276 120.222C111.276 120.732 111.357 121.206 111.52 121.643C111.682 122.081 111.932 122.434 112.27 122.702C112.608 122.971 113.039 123.105 113.563 123.105ZM124.502 122.608L124.422 123.145C124.366 123.523 124.28 123.927 124.164 124.358C124.051 124.789 123.933 125.195 123.811 125.576C123.688 125.957 123.587 126.26 123.507 126.486H122.612C122.655 126.274 122.712 125.994 122.781 125.646C122.851 125.298 122.921 124.908 122.99 124.477C123.063 124.05 123.123 123.612 123.169 123.165L123.229 122.608H124.502ZM66.2756 141.159C65.5398 141.159 64.9051 140.997 64.3714 140.672C63.8411 140.344 63.4318 139.886 63.1435 139.3C62.8584 138.71 62.7159 138.024 62.7159 137.241C62.7159 136.459 62.8584 135.77 63.1435 135.173C63.4318 134.573 63.8329 134.106 64.3466 133.771C64.8636 133.433 65.4669 133.264 66.1562 133.264C66.554 133.264 66.9467 133.33 67.3345 133.463C67.7223 133.596 68.0753 133.811 68.3935 134.109C68.7116 134.404 68.9652 134.795 69.1541 135.283C69.343 135.77 69.4375 136.37 69.4375 137.082V137.58H63.5511V136.565H68.2443C68.2443 136.134 68.1581 135.75 67.9858 135.412C67.8168 135.074 67.5748 134.807 67.2599 134.612C66.9484 134.416 66.5805 134.318 66.1562 134.318C65.6889 134.318 65.2846 134.434 64.9432 134.666C64.6051 134.895 64.3449 135.193 64.1626 135.561C63.9804 135.929 63.8892 136.323 63.8892 136.744V137.42C63.8892 137.997 63.9886 138.486 64.1875 138.887C64.3897 139.285 64.6697 139.588 65.0277 139.797C65.3857 140.002 65.8016 140.105 66.2756 140.105C66.5838 140.105 66.8622 140.062 67.1108 139.976C67.3627 139.886 67.5798 139.754 67.7621 139.578C67.9444 139.399 68.0852 139.177 68.1847 138.912L69.3182 139.23C69.1989 139.615 68.9983 139.953 68.7166 140.244C68.4349 140.533 68.0869 140.758 67.6726 140.92C67.2583 141.08 66.7926 141.159 66.2756 141.159ZM71.8922 133.364L73.7218 136.486L75.5513 133.364H76.9036L74.4377 137.182L76.9036 141H75.5513L73.7218 138.037L71.8922 141H70.54L72.9661 137.182L70.54 133.364H71.8922ZM78.5778 143.864V133.364H79.7113V134.577H79.8505C79.9367 134.444 80.056 134.275 80.2085 134.07C80.3642 133.861 80.5863 133.675 80.8746 133.513C81.1663 133.347 81.5607 133.264 82.0579 133.264C82.7009 133.264 83.2676 133.425 83.7582 133.746C84.2487 134.068 84.6315 134.524 84.9066 135.114C85.1817 135.704 85.3192 136.4 85.3192 137.202C85.3192 138.01 85.1817 138.711 84.9066 139.305C84.6315 139.895 84.2504 140.352 83.7631 140.677C83.2759 140.998 82.7141 141.159 82.0778 141.159C81.5872 141.159 81.1945 141.078 80.8995 140.915C80.6045 140.75 80.3775 140.562 80.2184 140.354C80.0593 140.142 79.9367 139.966 79.8505 139.827H79.7511V143.864H78.5778ZM79.7312 137.182C79.7312 137.759 79.8157 138.267 79.9847 138.708C80.1538 139.146 80.4007 139.489 80.7255 139.737C81.0503 139.982 81.448 140.105 81.9187 140.105C82.4092 140.105 82.8185 139.976 83.1467 139.717C83.4781 139.455 83.7267 139.104 83.8924 138.663C84.0614 138.219 84.146 137.725 84.146 137.182C84.146 136.645 84.0631 136.161 83.8974 135.73C83.735 135.296 83.488 134.953 83.1566 134.701C82.8285 134.446 82.4158 134.318 81.9187 134.318C81.4414 134.318 81.0404 134.439 80.7156 134.681C80.3907 134.92 80.1455 135.254 79.9798 135.685C79.814 136.113 79.7312 136.612 79.7312 137.182ZM88.2823 130.818V141H87.109V130.818H88.2823ZM93.5336 141.159C92.8442 141.159 92.2393 140.995 91.7189 140.667C91.2019 140.339 90.7975 139.88 90.5059 139.29C90.2175 138.7 90.0733 138.01 90.0733 137.222C90.0733 136.426 90.2175 135.732 90.5059 135.138C90.7975 134.545 91.2019 134.085 91.7189 133.756C92.2393 133.428 92.8442 133.264 93.5336 133.264C94.223 133.264 94.8262 133.428 95.3432 133.756C95.8636 134.085 96.2679 134.545 96.5563 135.138C96.848 135.732 96.9938 136.426 96.9938 137.222C96.9938 138.01 96.848 138.7 96.5563 139.29C96.2679 139.88 95.8636 140.339 95.3432 140.667C94.8262 140.995 94.223 141.159 93.5336 141.159ZM93.5336 140.105C94.0572 140.105 94.4881 139.971 94.8262 139.702C95.1642 139.434 95.4145 139.081 95.5769 138.643C95.7393 138.206 95.8205 137.732 95.8205 137.222C95.8205 136.711 95.7393 136.236 95.5769 135.795C95.4145 135.354 95.1642 134.998 94.8262 134.726C94.4881 134.454 94.0572 134.318 93.5336 134.318C93.0099 134.318 92.579 134.454 92.2409 134.726C91.9029 134.998 91.6526 135.354 91.4902 135.795C91.3278 136.236 91.2466 136.711 91.2466 137.222C91.2466 137.732 91.3278 138.206 91.4902 138.643C91.6526 139.081 91.9029 139.434 92.2409 139.702C92.579 139.971 93.0099 140.105 93.5336 140.105ZM98.7848 141V133.364H99.9183V134.517H99.9979C100.137 134.139 100.389 133.833 100.754 133.597C101.118 133.362 101.529 133.244 101.987 133.244C102.073 133.244 102.18 133.246 102.31 133.249C102.439 133.253 102.537 133.258 102.603 133.264V134.457C102.563 134.447 102.472 134.433 102.33 134.413C102.19 134.389 102.043 134.378 101.887 134.378C101.516 134.378 101.184 134.456 100.893 134.612C100.604 134.764 100.376 134.976 100.207 135.248C100.041 135.516 99.9581 135.823 99.9581 136.168V141H98.7848ZM106.963 141.159C106.227 141.159 105.593 140.997 105.059 140.672C104.529 140.344 104.119 139.886 103.831 139.3C103.546 138.71 103.403 138.024 103.403 137.241C103.403 136.459 103.546 135.77 103.831 135.173C104.119 134.573 104.52 134.106 105.034 133.771C105.551 133.433 106.154 133.264 106.844 133.264C107.241 133.264 107.634 133.33 108.022 133.463C108.41 133.596 108.763 133.811 109.081 134.109C109.399 134.404 109.653 134.795 109.842 135.283C110.031 135.77 110.125 136.37 110.125 137.082V137.58H104.239V136.565H108.932C108.932 136.134 108.846 135.75 108.673 135.412C108.504 135.074 108.262 134.807 107.947 134.612C107.636 134.416 107.268 134.318 106.844 134.318C106.376 134.318 105.972 134.434 105.631 134.666C105.293 134.895 105.032 135.193 104.85 135.561C104.668 135.929 104.577 136.323 104.577 136.744V137.42C104.577 137.997 104.676 138.486 104.875 138.887C105.077 139.285 105.357 139.588 105.715 139.797C106.073 140.002 106.489 140.105 106.963 140.105C107.271 140.105 107.55 140.062 107.798 139.976C108.05 139.886 108.267 139.754 108.45 139.578C108.632 139.399 108.773 139.177 108.872 138.912L110.006 139.23C109.886 139.615 109.686 139.953 109.404 140.244C109.122 140.533 108.774 140.758 108.36 140.92C107.946 141.08 107.48 141.159 106.963 141.159ZM118.094 141.179C117.611 141.179 117.171 141.088 116.777 140.906C116.383 140.72 116.069 140.453 115.837 140.105C115.605 139.754 115.489 139.33 115.489 138.832C115.489 138.395 115.576 138.04 115.748 137.768C115.92 137.493 116.151 137.278 116.439 137.122C116.727 136.966 117.045 136.85 117.393 136.774C117.745 136.695 118.098 136.632 118.452 136.585C118.916 136.526 119.293 136.481 119.581 136.451C119.873 136.418 120.085 136.363 120.217 136.287C120.353 136.211 120.421 136.078 120.421 135.889V135.849C120.421 135.359 120.287 134.978 120.018 134.706C119.753 134.434 119.351 134.298 118.81 134.298C118.25 134.298 117.811 134.421 117.493 134.666C117.175 134.911 116.951 135.173 116.822 135.452L115.708 135.054C115.907 134.59 116.172 134.229 116.504 133.97C116.838 133.708 117.203 133.526 117.597 133.423C117.995 133.317 118.386 133.264 118.771 133.264C119.016 133.264 119.298 133.294 119.616 133.354C119.937 133.41 120.247 133.528 120.545 133.707C120.847 133.886 121.097 134.156 121.296 134.517C121.495 134.878 121.594 135.362 121.594 135.969V141H120.421V139.966H120.362C120.282 140.132 120.149 140.309 119.964 140.498C119.778 140.687 119.531 140.848 119.223 140.98C118.915 141.113 118.539 141.179 118.094 141.179ZM118.273 140.125C118.737 140.125 119.129 140.034 119.447 139.852C119.768 139.669 120.01 139.434 120.173 139.146C120.338 138.857 120.421 138.554 120.421 138.236V137.162C120.371 137.222 120.262 137.276 120.093 137.326C119.927 137.372 119.735 137.414 119.516 137.45C119.301 137.483 119.09 137.513 118.885 137.54C118.683 137.563 118.519 137.583 118.393 137.599C118.088 137.639 117.803 137.704 117.538 137.793C117.276 137.879 117.064 138.01 116.901 138.186C116.742 138.358 116.663 138.594 116.663 138.892C116.663 139.3 116.813 139.608 117.115 139.817C117.42 140.022 117.806 140.125 118.273 140.125ZM124.909 136.406V141H123.736V133.364H124.869V134.557H124.969C125.148 134.169 125.42 133.857 125.784 133.622C126.149 133.384 126.619 133.264 127.196 133.264C127.713 133.264 128.166 133.37 128.553 133.582C128.941 133.791 129.243 134.109 129.458 134.537C129.674 134.961 129.781 135.498 129.781 136.148V141H128.608V136.227C128.608 135.627 128.452 135.16 128.141 134.825C127.829 134.487 127.402 134.318 126.858 134.318C126.484 134.318 126.149 134.399 125.854 134.562C125.562 134.724 125.332 134.961 125.163 135.273C124.994 135.584 124.909 135.962 124.909 136.406ZM134.809 141.159C134.173 141.159 133.611 140.998 133.124 140.677C132.636 140.352 132.255 139.895 131.98 139.305C131.705 138.711 131.567 138.01 131.567 137.202C131.567 136.4 131.705 135.704 131.98 135.114C132.255 134.524 132.638 134.068 133.129 133.746C133.619 133.425 134.186 133.264 134.829 133.264C135.326 133.264 135.719 133.347 136.007 133.513C136.299 133.675 136.521 133.861 136.673 134.07C136.829 134.275 136.95 134.444 137.036 134.577H137.136V130.818H138.309V141H137.175V139.827H137.036C136.95 139.966 136.827 140.142 136.668 140.354C136.509 140.562 136.282 140.75 135.987 140.915C135.692 141.078 135.299 141.159 134.809 141.159ZM134.968 140.105C135.439 140.105 135.836 139.982 136.161 139.737C136.486 139.489 136.733 139.146 136.902 138.708C137.071 138.267 137.156 137.759 137.156 137.182C137.156 136.612 137.073 136.113 136.907 135.685C136.741 135.254 136.496 134.92 136.171 134.681C135.846 134.439 135.445 134.318 134.968 134.318C134.471 134.318 134.057 134.446 133.725 134.701C133.397 134.953 133.15 135.296 132.984 135.73C132.822 136.161 132.741 136.645 132.741 137.182C132.741 137.725 132.824 138.219 132.989 138.663C133.158 139.104 133.407 139.455 133.735 139.717C134.067 139.976 134.478 140.105 134.968 140.105ZM65.9574 158.159C65.321 158.159 64.7592 157.998 64.272 157.677C63.7848 157.352 63.4036 156.895 63.1286 156.305C62.8535 155.711 62.7159 155.01 62.7159 154.202C62.7159 153.4 62.8535 152.704 63.1286 152.114C63.4036 151.524 63.7865 151.068 64.277 150.746C64.7675 150.425 65.3343 150.264 65.9773 150.264C66.4744 150.264 66.8672 150.347 67.1555 150.513C67.4472 150.675 67.6693 150.861 67.8217 151.07C67.9775 151.275 68.0985 151.444 68.1847 151.577H68.2841V147.818H69.4574V158H68.3239V156.827H68.1847C68.0985 156.966 67.9759 157.142 67.8168 157.354C67.6577 157.562 67.4306 157.75 67.1357 157.915C66.8407 158.078 66.4479 158.159 65.9574 158.159ZM66.1165 157.105C66.5871 157.105 66.9848 156.982 67.3097 156.737C67.6345 156.489 67.8814 156.146 68.0504 155.708C68.2195 155.267 68.304 154.759 68.304 154.182C68.304 153.612 68.2211 153.113 68.0554 152.685C67.8897 152.254 67.6444 151.92 67.3196 151.681C66.9948 151.439 66.5938 151.318 66.1165 151.318C65.6193 151.318 65.205 151.446 64.8736 151.701C64.5455 151.953 64.2985 152.296 64.1328 152.73C63.9704 153.161 63.8892 153.645 63.8892 154.182C63.8892 154.725 63.9721 155.219 64.1378 155.663C64.3068 156.104 64.5554 156.455 64.8835 156.717C65.215 156.976 65.6259 157.105 66.1165 157.105ZM71.7692 158V150.364H72.9425V158H71.7692ZM72.3658 149.091C72.1371 149.091 71.9399 149.013 71.7741 148.857C71.6117 148.701 71.5305 148.514 71.5305 148.295C71.5305 148.077 71.6117 147.889 71.7741 147.734C71.9399 147.578 72.1371 147.5 72.3658 147.5C72.5945 147.5 72.79 147.578 72.9524 147.734C73.1181 147.889 73.201 148.077 73.201 148.295C73.201 148.514 73.1181 148.701 72.9524 148.857C72.79 149.013 72.5945 149.091 72.3658 149.091ZM80.5005 152.074L79.4466 152.372C79.3803 152.196 79.2825 152.026 79.1532 151.86C79.0273 151.691 78.8549 151.552 78.6362 151.442C78.4174 151.333 78.1374 151.278 77.796 151.278C77.3287 151.278 76.9392 151.386 76.6277 151.602C76.3194 151.814 76.1653 152.084 76.1653 152.412C76.1653 152.704 76.2714 152.934 76.4835 153.103C76.6956 153.272 77.027 153.413 77.4778 153.526L78.6113 153.804C79.2941 153.97 79.8029 154.223 80.1376 154.565C80.4724 154.903 80.6397 155.339 80.6397 155.872C80.6397 156.31 80.5138 156.701 80.2619 157.045C80.0133 157.39 79.6653 157.662 79.2179 157.861C78.7704 158.06 78.2501 158.159 77.6568 158.159C76.8779 158.159 76.2333 157.99 75.7228 157.652C75.2124 157.314 74.8893 156.82 74.7534 156.17L75.867 155.892C75.9731 156.303 76.1736 156.611 76.4686 156.817C76.7669 157.022 77.1563 157.125 77.6369 157.125C78.1838 157.125 78.618 157.009 78.9395 156.777C79.2643 156.542 79.4267 156.26 79.4267 155.932C79.4267 155.667 79.3339 155.445 79.1483 155.266C78.9627 155.083 78.6776 154.947 78.2931 154.858L77.0204 154.56C76.3211 154.394 75.8074 154.137 75.4792 153.789C75.1544 153.438 74.992 152.999 74.992 152.472C74.992 152.041 75.113 151.66 75.3549 151.328C75.6002 150.997 75.9333 150.737 76.3542 150.548C76.7785 150.359 77.2591 150.264 77.796 150.264C78.5517 150.264 79.1449 150.43 79.5758 150.761C80.01 151.093 80.3182 151.53 80.5005 152.074ZM85.5082 158.159C84.7923 158.159 84.1758 157.99 83.6587 157.652C83.1417 157.314 82.744 156.848 82.4656 156.255C82.1871 155.662 82.0479 154.984 82.0479 154.222C82.0479 153.446 82.1905 152.762 82.4755 152.168C82.7638 151.572 83.1649 151.106 83.6786 150.771C84.1957 150.433 84.7989 150.264 85.4883 150.264C86.0252 150.264 86.5091 150.364 86.94 150.562C87.3709 150.761 87.7238 151.04 87.9989 151.398C88.274 151.756 88.4447 152.173 88.511 152.651H87.3377C87.2482 152.303 87.0494 151.994 86.7411 151.726C86.4362 151.454 86.0252 151.318 85.5082 151.318C85.0508 151.318 84.6497 151.437 84.305 151.676C83.9637 151.911 83.6969 152.245 83.5046 152.675C83.3157 153.103 83.2212 153.605 83.2212 154.182C83.2212 154.772 83.314 155.286 83.4996 155.723C83.6886 156.161 83.9537 156.5 84.2951 156.742C84.6398 156.984 85.0442 157.105 85.5082 157.105C85.8131 157.105 86.0898 157.052 86.3384 156.946C86.587 156.84 86.7975 156.688 86.9698 156.489C87.1422 156.29 87.2648 156.051 87.3377 155.773H88.511C88.4447 156.223 88.2807 156.629 88.0188 156.991C87.7603 157.349 87.4173 157.634 86.9897 157.846C86.5655 158.055 86.0716 158.159 85.5082 158.159ZM93.3285 158.159C92.6391 158.159 92.0342 157.995 91.5138 157.667C90.9968 157.339 90.5924 156.88 90.3008 156.29C90.0124 155.7 89.8683 155.01 89.8683 154.222C89.8683 153.426 90.0124 152.732 90.3008 152.138C90.5924 151.545 90.9968 151.085 91.5138 150.756C92.0342 150.428 92.6391 150.264 93.3285 150.264C94.0179 150.264 94.6211 150.428 95.1381 150.756C95.6585 151.085 96.0629 151.545 96.3512 152.138C96.6429 152.732 96.7887 153.426 96.7887 154.222C96.7887 155.01 96.6429 155.7 96.3512 156.29C96.0629 156.88 95.6585 157.339 95.1381 157.667C94.6211 157.995 94.0179 158.159 93.3285 158.159ZM93.3285 157.105C93.8522 157.105 94.283 156.971 94.6211 156.702C94.9592 156.434 95.2094 156.081 95.3718 155.643C95.5342 155.206 95.6154 154.732 95.6154 154.222C95.6154 153.711 95.5342 153.236 95.3718 152.795C95.2094 152.354 94.9592 151.998 94.6211 151.726C94.283 151.454 93.8522 151.318 93.3285 151.318C92.8048 151.318 92.3739 151.454 92.0359 151.726C91.6978 151.998 91.4476 152.354 91.2852 152.795C91.1228 153.236 91.0415 153.711 91.0415 154.222C91.0415 154.732 91.1228 155.206 91.2852 155.643C91.4476 156.081 91.6978 156.434 92.0359 156.702C92.3739 156.971 92.8048 157.105 93.3285 157.105ZM104.551 150.364L101.727 158H100.534L97.7097 150.364H98.9824L101.09 156.449H101.17L103.278 150.364H104.551ZM109.028 158.159C108.292 158.159 107.657 157.997 107.123 157.672C106.593 157.344 106.184 156.886 105.895 156.3C105.61 155.71 105.468 155.024 105.468 154.241C105.468 153.459 105.61 152.77 105.895 152.173C106.184 151.573 106.585 151.106 107.099 150.771C107.616 150.433 108.219 150.264 108.908 150.264C109.306 150.264 109.699 150.33 110.086 150.463C110.474 150.596 110.827 150.811 111.145 151.109C111.464 151.404 111.717 151.795 111.906 152.283C112.095 152.77 112.189 153.37 112.189 154.082V154.58H106.303V153.565H110.996C110.996 153.134 110.91 152.75 110.738 152.412C110.569 152.074 110.327 151.807 110.012 151.612C109.7 151.416 109.332 151.318 108.908 151.318C108.441 151.318 108.037 151.434 107.695 151.666C107.357 151.895 107.097 152.193 106.915 152.561C106.732 152.929 106.641 153.323 106.641 153.744V154.42C106.641 154.997 106.741 155.486 106.939 155.887C107.142 156.285 107.422 156.588 107.78 156.797C108.138 157.002 108.554 157.105 109.028 157.105C109.336 157.105 109.614 157.062 109.863 156.976C110.115 156.886 110.332 156.754 110.514 156.578C110.696 156.399 110.837 156.177 110.937 155.912L112.07 156.23C111.951 156.615 111.75 156.953 111.469 157.244C111.187 157.533 110.839 157.758 110.425 157.92C110.01 158.08 109.545 158.159 109.028 158.159ZM113.974 158V150.364H115.108V151.517H115.187C115.327 151.139 115.578 150.833 115.943 150.597C116.308 150.362 116.719 150.244 117.176 150.244C117.262 150.244 117.37 150.246 117.499 150.249C117.628 150.253 117.726 150.258 117.792 150.264V151.457C117.753 151.447 117.662 151.433 117.519 151.413C117.38 151.389 117.232 151.378 117.077 151.378C116.705 151.378 116.374 151.456 116.082 151.612C115.794 151.764 115.565 151.976 115.396 152.248C115.23 152.516 115.148 152.823 115.148 153.168V158H113.974Z" fill="black"/>
<path d="M7.1875 64C5.72917 64 5 63.2188 5 61.6562V21.5312C5 19.9688 5.72917 19.1875 7.1875 19.1875H11.9375C13.3958 19.1875 14.125 19.9688 14.125 21.5312V36.8125H30.9375V21.5312C30.9375 19.9688 31.6667 19.1875 33.125 19.1875H37.875C39.3333 19.1875 40.0625 19.9688 40.0625 21.5312V61.6562C40.0625 63.2188 39.3333 64 37.875 64H33.125C31.6667 64 30.9375 63.2188 30.9375 61.6562V44.5625H14.125V61.6562C14.125 63.2188 13.3958 64 11.9375 64H7.1875ZM47.5625 47.5938C47.5625 42.3229 48.875 38.1667 51.5 35.125C54.1458 32.0833 57.875 30.5625 62.6875 30.5625C68.2708 30.5625 72.4167 32 75.125 34.875C77.8333 37.75 79.1875 42.375 79.1875 48.75C79.1875 50 78.6042 50.625 77.4375 50.625H56.8125C57.1458 54.0833 58 56.2604 59.375 57.1562C60.75 58.0521 62.3438 58.5 64.1562 58.5C65.8854 58.5 67.2083 58.2708 68.125 57.8125C69.0417 57.3542 69.8125 56.7292 70.4375 55.9375C71.1458 55.0208 72.0208 54.875 73.0625 55.5L76.1875 57.4062C77.4167 58.1562 77.5938 59.0521 76.7188 60.0938C75.4479 61.6146 73.9583 62.75 72.25 63.5C70.5417 64.25 67.8438 64.625 64.1562 64.625C58.1771 64.625 53.9167 63.1042 51.375 60.0625C48.8333 57.0208 47.5625 52.8646 47.5625 47.5938ZM56.8438 44.375H70.4375C70.4375 42.125 69.875 40.2917 68.75 38.875C67.625 37.4375 65.8333 36.7188 63.375 36.7188C61.4167 36.7188 59.8646 37.4062 58.7188 38.7812C57.5729 40.1354 56.9479 42 56.8438 44.375ZM87.875 64C86.625 64 86 63.375 86 62.125V25.2188C86 24.2812 86.2188 23.4271 86.6562 22.6562L89.0625 18.4375C89.5208 17.6458 90.0625 17.25 90.6875 17.25H92.875C94.125 17.25 94.75 17.875 94.75 19.125V62.125C94.75 63.375 94.125 64 92.875 64H87.875ZM105.125 64C103.875 64 103.25 63.375 103.25 62.125V25.2188C103.25 24.2812 103.469 23.4271 103.906 22.6562L106.312 18.4375C106.771 17.6458 107.312 17.25 107.938 17.25H110.125C111.375 17.25 112 17.875 112 19.125V62.125C112 63.375 111.375 64 110.125 64H105.125ZM118.75 47.5938C118.75 42.2812 120.115 38.1146 122.844 35.0938C125.594 32.0729 129.677 30.5625 135.094 30.5625C140.51 30.5625 144.583 32.0729 147.312 35.0938C150.062 38.1146 151.438 42.2812 151.438 47.5938C151.438 52.9062 150.062 57.0729 147.312 60.0938C144.583 63.1146 140.51 64.625 135.094 64.625C129.677 64.625 125.594 63.1146 122.844 60.0938C120.115 57.0729 118.75 52.9062 118.75 47.5938ZM128 47.5938C128 51.5521 128.604 54.3646 129.812 56.0312C131.042 57.6771 132.802 58.5 135.094 58.5C137.385 58.5 139.135 57.6771 140.344 56.0312C141.573 54.3646 142.188 51.5521 142.188 47.5938C142.188 43.6354 141.573 40.8333 140.344 39.1875C139.135 37.5208 137.385 36.6875 135.094 36.6875C132.802 36.6875 131.042 37.5208 129.812 39.1875C128.604 40.8333 128 43.6354 128 47.5938ZM161.125 64C159.667 64 158.938 63.2188 158.938 61.6562V57.4688C158.938 55.9062 159.667 55.125 161.125 55.125H165.875C167.333 55.125 168.062 55.9062 168.062 57.4688V61.6562C168.062 63.2188 167.333 64 165.875 64H161.125Z" fill="black"/>
<path d="M7 96H40.32V102.832H7V96Z" fill="#0B0000"/>
</svg>
