<svg width="22" height="22" viewBox="0 0 22 22" fill="none" xmlns="http://www.w3.org/2000/svg">
<path fill-rule="evenodd" clip-rule="evenodd" d="M4 0C2.93913 0 1.92172 0.421427 1.17157 1.17157C0.421427 1.92172 0 2.93913 0 4V18C0 19.0609 0.421427 20.0783 1.17157 20.8284C1.92172 21.5786 2.93913 22 4 22H18C19.0609 22 20.0783 21.5786 20.8284 20.8284C21.5786 20.0783 22 19.0609 22 18V4C22 2.93913 21.5786 1.92172 20.8284 1.17157C20.0783 0.421427 19.0609 0 18 0H4ZM3.5 8C3.5 6.80653 3.97411 5.66193 4.81802 4.81802C5.66193 3.97411 6.80653 3.5 8 3.5H14C15.1935 3.5 16.3381 3.97411 17.182 4.81802C18.0259 5.66193 18.5 6.80653 18.5 8V14C18.5 15.1935 18.0259 16.3381 17.182 17.182C16.3381 18.0259 15.1935 18.5 14 18.5H8C6.80653 18.5 5.66193 18.0259 4.81802 17.182C3.97411 16.3381 3.5 15.1935 3.5 14V8ZM8 4.5C7.07174 4.5 6.1815 4.86875 5.52513 5.52513C4.86875 6.1815 4.5 7.07174 4.5 8V14C4.5 14.9283 4.86875 15.8185 5.52513 16.4749C6.1815 17.1313 7.07174 17.5 8 17.5H14C14.9283 17.5 15.8185 17.1313 16.4749 16.4749C17.1313 15.8185 17.5 14.9283 17.5 14V8C17.5 7.07174 17.1313 6.1815 16.4749 5.52513C15.8185 4.86875 14.9283 4.5 14 4.5H8ZM16 7.167C16 7.38806 15.9122 7.60006 15.7559 7.75637C15.5996 7.91268 15.3876 8.0005 15.1665 8.0005C14.9454 8.0005 14.7334 7.91268 14.5771 7.75637C14.4208 7.60006 14.333 7.38806 14.333 7.167C14.333 6.94594 14.4208 6.73394 14.5771 6.57763C14.7334 6.42132 14.9454 6.3335 15.1665 6.3335C15.3876 6.3335 15.5996 6.42132 15.7559 6.57763C15.9122 6.73394 16 6.94594 16 7.167ZM7.167 11C7.167 9.98343 7.57083 9.00849 8.28966 8.28966C9.00849 7.57083 9.98343 7.167 11 7.167C12.0166 7.167 12.9915 7.57083 13.7103 8.28966C14.4292 9.00849 14.833 9.98343 14.833 11C14.833 12.0166 14.4292 12.9915 13.7103 13.7103C12.9915 14.4292 12.0166 14.833 11 14.833C9.98343 14.833 9.00849 14.4292 8.28966 13.7103C7.57083 12.9915 7.167 12.0166 7.167 11ZM11 8.167C10.2486 8.167 9.52806 8.46548 8.99677 8.99677C8.46548 9.52806 8.167 10.2486 8.167 11C8.167 11.7514 8.46548 12.4719 8.99677 13.0032C9.52806 13.5345 10.2486 13.833 11 13.833C11.7514 13.833 12.4719 13.5345 13.0032 13.0032C13.5345 12.4719 13.833 11.7514 13.833 11C13.833 10.2486 13.5345 9.52806 13.0032 8.99677C12.4719 8.46548 11.7514 8.167 11 8.167Z" fill="black"/>
</svg>
