<svg width="22" height="22" viewBox="0 0 22 22" fill="none" xmlns="http://www.w3.org/2000/svg">
<path fill-rule="evenodd" clip-rule="evenodd" d="M4 0C2.93913 0 1.92172 0.421427 1.17157 1.17157C0.421427 1.92172 0 2.93913 0 4V18C0 19.0609 0.421427 20.0783 1.17157 20.8284C1.92172 21.5786 2.93913 22 4 22H18C19.0609 22 20.0783 21.5786 20.8284 20.8284C21.5786 20.0783 22 19.0609 22 18V4C22 2.93913 21.5786 1.92172 20.8284 1.17157C20.0783 0.421427 19.0609 0 18 0H4ZM5.205 6.91C5.65719 6.91 6.09087 6.73037 6.41062 6.41062C6.73037 6.09087 6.91 5.65719 6.91 5.205C6.91 4.75281 6.73037 4.31913 6.41062 3.99938C6.09087 3.67963 5.65719 3.5 5.205 3.5C4.75281 3.5 4.31913 3.67963 3.99938 3.99938C3.67963 4.31913 3.5 4.75281 3.5 5.205C3.5 5.65719 3.67963 6.09087 3.99938 6.41062C4.31913 6.73037 4.75281 6.91 5.205 6.91ZM6.909 18.5V8.273H3.5V18.5H6.909ZM11.341 8.273H8.273V18.5H11.341V12.33C11.736 11.688 12.418 11 13.386 11C14.75 11 15.091 12.364 15.091 13.046V18.5H18.5V13.046C18.5 11.218 17.703 8.273 14.75 8.273C12.872 8.273 11.83 8.958 11.34 9.6L11.341 8.273Z" fill="black"/>
</svg>
