<svg width="24" height="18" viewBox="0 0 24 18" fill="none" xmlns="http://www.w3.org/2000/svg">
<path d="M0 1.19423C0 0.534672 0.534672 0 1.19423 0H10.8058C11.4653 0 12 0.534672 12 1.19423C12 1.85378 11.4653 2.38847 10.8058 2.38847H1.19423C0.534672 2.38847 0 1.85378 0 1.19423Z" fill="black"/>
<path d="M0 8.5827C0 7.92306 0.534672 7.38846 1.19423 7.38846H22.8058C23.4653 7.38846 24 7.92306 24 8.5827C24 9.24222 23.4653 9.77682 22.8058 9.77682H1.19423C0.534672 9.77682 0 9.24222 0 8.5827Z" fill="black"/>
<path d="M1.19423 14.7768C0.534672 14.7768 0 15.3115 0 15.9711C0 16.6306 0.534672 17.1653 1.19423 17.1653H15.6058C16.2653 17.1653 16.8 16.6306 16.8 15.9711C16.8 15.3115 16.2653 14.7768 15.6058 14.7768H1.19423Z" fill="black"/>
</svg>
